# xmcd CD database file
#
# Track frame offsets:
#	150
#	23150
#	45308
#	79693
#	104402
#	127784
#	151419
#	201828
#	241177
#	288963
#
# Disc length: 4201 seconds
#
# Revision: 1
# Processed by: cddbd v1.5.2PL0 Copyright (c) Steve Scherf et al.
# Submitted via: CDex 1.70beta2
#
DISCID=7410670a
DTITLE=Arnvid Meyer and various - Right Out Of Kansas City [CD4)
DYEAR=1970
DGENRE=Jazz
TTITLE0=Buck In Copenhagen
TTITLE1=Elephant Rump
TTITLE2=Higginbotham Blues
TTITLE3=Ja-Da
TTITLE4=C Jam Blues
TTITLE5=Swinging The Blues
TTITLE6=Hi' Ya
TTITLE7=Stardust
TTITLE8=Alphonse and Gaston
TTITLE9=C Jam Blues
EXTD=YEAR: 1970
EXTT0=
EXTT1=
EXTT2=
EXTT3=
EXTT4=
EXTT5=
EXTT6=
EXTT7=
EXTT8=
EXTT9=
PLAYORDER=
